<?xml version="1.0" standalone="no"?>
<!DOCTYPE svg PUBLIC "-//W3C//DTD SVG 20010904//EN"
 "http://www.w3.org/TR/2001/REC-SVG-20010904/DTD/svg10.dtd">
<svg version="1.0" xmlns="http://www.w3.org/2000/svg"
 width="1080.000000pt" height="1080.000000pt" viewBox="0 0 1080.000000 1080.000000"
 preserveAspectRatio="xMidYMid meet">

<g transform="translate(0.000000,1080.000000) scale(0.100000,-0.100000)"
fill="#000000" stroke="none">
<path d="M5745 9449 c-224 -20 -395 -63 -550 -138 -129 -63 -139 -71 -140
-112 0 -28 -4 -34 -33 -41 -26 -7 -38 -4 -61 13 -26 19 -41 21 -177 21 -168 0
-231 -8 -424 -57 -402 -102 -824 -329 -1110 -599 -226 -214 -346 -370 -519
-679 -77 -138 -87 -179 -43 -185 24 -4 28 -24 13 -65 -8 -19 -15 -23 -39 -19
-27 4 -33 0 -51 -36 -43 -84 -95 -283 -151 -577 -15 -76 -29 -121 -46 -147
-28 -40 -29 -75 -2 -92 24 -14 51 12 88 87 34 67 35 65 18 -31 -11 -67 -12
-69 -41 -69 -33 0 -80 -44 -75 -71 5 -26 35 -39 58 -24 29 18 30 16 30 -28 l0
-41 -35 7 c-33 6 -36 4 -49 -28 -21 -50 -46 -232 -46 -335 0 -203 42 -391 126
-570 32 -66 71 -91 115 -72 16 6 31 10 33 8 1 -2 23 -35 49 -72 46 -66 47 -70
47 -145 0 -317 148 -642 374 -822 41 -33 59 -56 76 -99 102 -255 292 -448 573
-584 51 -24 108 -50 127 -57 l35 -12 0 -122 c0 -113 2 -124 28 -174 l28 -54
-23 7 c-13 4 -44 18 -70 31 -58 30 -172 54 -213 47 -77 -15 -129 -95 -123
-188 1 -30 1 -55 -2 -55 -3 0 -32 9 -65 21 -105 37 -141 6 -133 -115 4 -58 13
-91 42 -153 38 -80 38 -81 21 -113 -12 -24 -16 -50 -13 -91 6 -80 38 -123 139
-184 77 -47 83 -49 157 -49 42 -1 102 3 132 8 l55 8 -37 -36 c-82 -83 -148
-210 -148 -288 0 -75 25 -109 105 -144 22 -10 41 -19 43 -20 2 -1 -6 -29 -18
-63 -48 -142 -30 -493 26 -515 28 -11 46 8 79 79 43 96 83 132 208 194 63 30
116 64 132 82 14 17 27 30 29 28 1 -2 14 -29 29 -59 33 -69 86 -126 129 -138
46 -12 168 3 216 27 59 30 129 115 149 181 18 59 33 85 33 57 0 -23 66 -87 90
-87 27 0 30 -10 35 -94 13 -232 60 -293 159 -206 18 17 37 30 41 30 4 0 26
-16 48 -36 22 -20 64 -47 94 -61 47 -22 65 -25 137 -22 69 3 92 9 148 38 37
18 79 46 94 62 33 34 41 35 68 10 33 -29 83 -41 174 -41 129 0 193 22 256 86
39 39 64 56 105 68 30 9 60 16 66 16 6 0 16 -20 23 -45 24 -91 96 -82 231 28
305 249 389 349 309 370 -17 5 -35 -9 -87 -62 -69 -71 -179 -167 -185 -160 -2
2 -8 32 -15 66 -14 76 -43 174 -78 267 -21 56 -23 70 -12 77 8 5 19 9 25 9 6
0 29 16 52 36 50 43 66 91 56 172 -8 66 -69 190 -116 239 l-32 33 29 30 c17
18 43 32 64 35 20 4 44 10 53 16 10 5 37 9 60 9 25 0 93 18 158 41 143 51 218
72 230 64 18 -11 99 -171 115 -228 15 -52 15 -62 2 -101 -8 -24 -53 -102 -100
-173 -151 -229 -192 -321 -151 -337 33 -13 43 -4 84 72 23 42 83 140 134 217
92 139 126 208 126 256 0 52 -37 162 -88 262 -2 4 8 7 22 7 16 0 30 8 37 21 9
18 6 28 -18 63 -55 78 -242 208 -349 244 l-43 14 19 39 c40 77 16 142 -82 222
-43 35 -161 97 -185 97 -22 0 -14 19 15 34 37 20 166 153 186 192 8 18 18 50
22 73 4 23 10 41 14 41 14 0 146 93 210 148 197 170 346 354 450 554 23 44 28
48 70 54 238 32 470 178 609 383 103 151 146 375 105 551 -30 134 -33 119 40
227 71 108 118 203 162 328 32 94 31 92 46 77 16 -16 43 -15 57 2 7 8 19 61
27 117 32 206 3 570 -65 831 -70 265 -203 565 -260 583 -12 4 -21 19 -25 44
-3 21 -15 50 -27 65 -16 20 -19 30 -10 39 26 26 12 54 -34 71 -72 28 -140 88
-469 414 -402 398 -557 517 -581 443 -7 -23 2 -48 21 -55 68 -26 385 -315 636
-581 l47 -50 -23 -80 c-37 -126 -80 -201 -160 -280 -86 -84 -109 -103 -161
-131 -133 -71 -291 -85 -412 -37 -148 58 -244 144 -353 317 -109 173 -160 300
-179 446 -13 101 -13 331 0 405 13 71 58 168 99 212 17 18 30 36 30 41 0 14
-174 95 -310 145 -69 25 -138 50 -155 56 -64 23 58 1 156 -28 205 -62 355
-135 581 -283 144 -94 178 -104 178 -53 0 29 -51 70 -210 169 -307 193 -606
293 -941 316 -159 11 -153 11 -294 -1z m-1320 -389 c-11 -5 -65 -25 -120 -46
-305 -113 -629 -307 -938 -561 -51 -42 -173 -157 -271 -256 -99 -99 -176 -174
-171 -166 79 136 312 399 470 528 158 129 409 285 575 357 178 76 407 153 455
153 l20 0 -20 -9z m1943 -940 c105 -49 245 -207 301 -339 35 -82 39 -189 11
-271 -43 -131 -165 -240 -269 -240 -25 -1 -57 -7 -71 -15 -32 -19 -82 -19
-125 0 -41 17 -131 99 -170 155 -28 40 -45 51 -45 28 0 -22 -53 -80 -86 -94
-142 -59 -277 84 -203 216 40 71 134 101 203 65 15 -8 31 -15 35 -15 3 0 6 51
6 112 0 106 2 120 39 221 30 83 48 118 77 147 75 75 177 86 297 30z m-3036
-377 c66 -36 104 -83 130 -164 21 -65 22 -67 59 -72 21 -3 51 -14 68 -26 36
-26 104 -123 120 -174 10 -30 17 -37 30 -32 50 21 83 25 120 15 113 -30 156
-168 80 -255 -55 -62 -147 -71 -214 -21 -18 14 -36 26 -39 26 -3 0 -28 -21
-57 -46 -28 -25 -62 -50 -76 -55 -37 -14 -109 -11 -149 6 -43 18 -48 15 -73
-33 -23 -46 -109 -134 -161 -167 -96 -61 -202 -53 -274 19 -56 57 -125 174
-143 244 -29 109 -3 304 61 462 60 147 185 270 308 301 59 15 154 2 210 -28z
m-795 -835 c-3 -8 -6 -5 -6 6 -1 11 2 17 5 13 3 -3 4 -12 1 -19z m-78 -554
c-6 -49 -14 -91 -16 -94 -5 -5 0 49 13 148 4 24 8 41 11 39 2 -3 -1 -45 -8
-93z m4361 -259 c41 -22 111 -49 155 -61 l80 -21 12 -49 c6 -27 11 -105 12
-174 1 -208 -38 -354 -140 -514 -149 -234 -357 -386 -619 -451 -208 -53 -467
-34 -548 40 -51 45 -94 65 -140 65 -73 0 -230 125 -332 264 -81 111 -155 285
-175 414 -4 23 -5 42 -3 42 3 0 26 -7 52 -16 61 -21 129 -14 162 17 36 34 32
81 -15 174 l-39 78 39 59 c21 33 43 75 49 94 6 19 14 34 16 34 3 0 21 -8 42
-19 20 -10 55 -24 77 -31 56 -17 59 -22 35 -62 -11 -20 -18 -43 -14 -52 9 -22
51 -20 82 5 35 27 37 16 11 -56 -18 -51 -40 -235 -28 -235 2 0 35 13 72 28 67
27 69 29 86 80 33 98 91 138 185 129 55 -5 64 -9 98 -46 22 -23 42 -57 48 -83
11 -44 13 -46 114 -87 15 -6 -1 149 -22 209 -10 30 -21 62 -23 70 -3 11 12 16
66 22 39 4 111 18 160 29 l90 22 55 -28 c30 -15 78 -45 107 -66 29 -21 59 -39
67 -39 44 0 146 100 146 143 0 25 -38 54 -78 62 -19 4 -66 22 -104 41 -60 30
-68 38 -68 63 0 16 -7 34 -15 41 -9 7 -15 29 -15 50 l0 38 93 -92 c66 -66 113
-103 167 -131z m-2679 157 c24 -16 53 -39 63 -50 l19 -22 -86 0 -87 0 0 32 c0
28 23 68 40 68 3 0 26 -13 51 -28z m129 -171 c46 -14 75 -33 127 -81 82 -75
174 -139 217 -151 26 -7 38 -20 61 -69 l29 -60 -22 -23 c-25 -27 -29 -69 -8
-86 8 -7 27 -16 43 -20 46 -12 57 -59 57 -256 0 -157 -3 -177 -28 -260 -15
-49 -44 -126 -66 -170 -39 -82 -153 -245 -171 -245 -6 0 -16 -6 -23 -12 -47
-46 -97 -87 -136 -112 -25 -16 -58 -38 -73 -48 -47 -32 -219 -96 -308 -114
-107 -22 -324 -15 -411 14 -32 10 -60 21 -64 25 -4 4 -21 7 -38 7 -34 0 -177
69 -213 102 -27 25 -46 105 -69 287 -14 110 -15 148 -6 207 13 84 9 104 -23
104 -16 0 -27 -10 -39 -34 -21 -44 -21 -214 -1 -346 20 -127 20 -127 -7 -104
-91 81 -223 318 -257 464 -23 97 -38 240 -25 240 4 0 22 -13 39 -29 77 -72
230 -139 296 -129 44 6 46 33 6 90 -39 57 -60 109 -70 171 -7 46 3 47 36 3 15
-18 47 -54 72 -79 29 -30 43 -51 39 -61 -20 -52 30 -89 138 -102 29 -3 79 -15
111 -27 50 -17 63 -18 97 -8 57 17 59 40 17 148 -19 48 -41 114 -48 146 l-13
59 35 32 c73 69 197 144 314 191 78 31 185 59 194 50 3 -3 -3 -18 -12 -33 -27
-41 -56 -110 -67 -156 -11 -47 -13 -182 -4 -238 l6 -37 58 44 c57 44 58 45 62
105 5 67 24 101 78 137 88 60 168 35 240 -75 26 -41 38 -49 90 -66 33 -10 60
-22 60 -27 0 -5 4 -9 10 -9 22 0 -25 153 -72 233 -15 26 -28 52 -28 58 0 5 18
0 39 -11 42 -21 66 -19 75 6 22 56 -144 165 -311 205 -72 17 -112 20 -223 17
l-136 -3 32 45 c17 25 39 59 48 77 9 17 26 34 38 36 39 9 145 -3 208 -22z
m2906 -105 c-3 -11 -6 -34 -6 -50 0 -41 -16 -21 -24 30 -6 45 -2 56 21 47 9
-4 13 -13 9 -27z m-2402 -92 c3 -8 0 -29 -8 -47 l-13 -32 -26 52 c-15 29 -27
62 -27 73 0 20 1 20 34 -5 19 -14 37 -33 40 -41z m3342 15 c98 -49 149 -173
149 -359 -1 -214 -62 -349 -229 -507 -61 -58 -109 -93 -173 -125 -102 -52
-208 -84 -253 -74 -24 4 -40 0 -68 -19 -47 -32 -53 -31 -40 3 9 22 6 39 -17
92 -69 165 -208 304 -372 372 -39 16 -53 27 -49 38 2 8 18 56 35 105 17 50 35
109 41 132 9 36 15 42 43 48 17 4 66 24 107 45 63 31 88 38 155 42 67 4 92 11
153 42 40 20 96 59 125 87 50 48 130 86 217 103 49 9 130 -3 176 -25z m-3079
-296 c-3 -2 -18 -3 -34 -1 l-28 3 30 17 c26 14 30 14 33 1 2 -8 2 -17 -1 -20z
m-167 -38 c-7 -8 -16 -15 -21 -15 -5 0 -9 7 -9 15 0 9 9 15 21 15 18 0 19 -2
9 -15z m182 -57 c8 -7 27 -49 43 -93 53 -156 154 -307 283 -425 51 -46 71 -71
62 -74 -8 -2 -58 -14 -110 -27 -135 -31 -333 -102 -394 -141 -160 -103 -208
-213 -156 -363 19 -54 19 -75 1 -75 -4 0 -16 19 -27 43 -27 62 -97 167 -138
206 -20 19 -36 38 -36 43 0 4 29 47 65 95 36 49 83 126 106 173 41 85 89 226
89 264 0 19 1 19 20 -2 35 -37 70 -22 70 30 0 29 23 48 58 48 47 0 53 64 6 76
-34 9 -67 -2 -103 -32 l-31 -26 0 106 c0 113 4 123 72 170 27 19 98 21 120 4z
m549 -677 c22 -18 22 -19 6 -44 -33 -51 -206 -130 -354 -163 -106 -23 -238
-24 -280 -1 -18 10 -33 21 -33 25 0 26 241 122 403 161 185 45 226 48 258 22z
m384 -112 c55 -6 101 -12 102 -13 2 -2 5 -56 7 -122 3 -65 7 -128 11 -140 5
-15 -6 -35 -39 -76 -25 -30 -46 -60 -46 -67 0 -28 -18 -3 -59 82 -30 62 -60
107 -93 139 l-49 48 3 86 3 86 30 -6 c17 -3 75 -10 130 -17z m-161 -270 c83
-98 116 -195 123 -359 l5 -125 -40 -18 c-22 -9 -46 -15 -55 -11 -15 6 -84 100
-141 192 -64 105 -75 201 -30 268 31 47 73 83 96 84 9 0 28 -14 42 -31z m618
-10 c28 -7 40 -17 44 -35 10 -39 -2 -102 -35 -181 -52 -126 -122 -213 -224
-277 -27 -16 -29 -16 -60 3 -18 11 -52 23 -75 27 l-42 7 0 83 c0 94 23 171 72
240 46 64 130 117 211 134 59 11 67 11 109 -1z m-3082 -72 c43 -22 64 -37 61
-47 -2 -8 -6 -34 -8 -57 -3 -24 -9 -43 -13 -43 -4 0 -19 15 -32 33 -35 46 -92
147 -81 146 4 0 37 -15 73 -32z m1606 -128 c52 -49 105 -146 117 -214 12 -72
6 -85 -40 -85 -12 0 -43 -16 -68 -36 -26 -19 -48 -34 -49 -32 0 2 -16 22 -35
46 -56 73 -84 155 -79 235 3 62 7 72 33 94 34 30 84 27 121 -8z m403 -18 c10
-6 26 -28 36 -50 l18 -41 -38 -38 c-44 -44 -65 -87 -65 -138 0 -36 49 -155 76
-186 9 -9 11 -19 6 -22 -5 -3 -27 24 -50 59 -34 54 -50 69 -101 95 -60 30 -61
31 -61 71 0 76 104 259 147 259 8 0 22 -4 32 -9z m277 -181 c18 -12 42 -35 53
-53 11 -18 28 -41 38 -52 60 -68 58 -60 24 -102 -16 -21 -40 -60 -51 -86 -15
-35 -25 -45 -33 -39 -7 6 -43 23 -82 38 -38 15 -85 38 -104 52 -38 28 -81 116
-81 165 0 38 39 82 86 97 41 13 111 4 150 -20z m1071 5 c43 -26 73 -68 73
-102 0 -24 -53 -89 -122 -149 -87 -76 -247 -128 -342 -110 -35 7 -36 8 -36 50
0 24 -7 60 -15 79 l-15 36 93 73 c50 40 125 89 165 110 89 46 136 49 199 13z
m-2092 -135 c22 -11 76 -43 120 -70 44 -27 86 -50 93 -50 16 0 15 -22 -3 -46
-8 -10 -15 -38 -15 -61 0 -40 -2 -43 -37 -52 -136 -36 -192 -39 -255 -14 -156
60 -217 196 -124 275 48 41 157 50 221 18z m-458 -101 c85 -58 172 -206 203
-346 15 -63 2 -203 -19 -211 -9 -3 -28 -14 -43 -24 l-27 -18 -58 48 c-91 76
-149 147 -194 235 -40 80 -41 84 -37 167 9 177 64 224 175 149z m1415 -150
c74 -29 96 -53 120 -132 19 -62 20 -87 16 -234 -3 -90 -7 -165 -9 -167 -2 -2
-49 -6 -105 -8 l-100 -5 -30 46 c-16 25 -43 75 -59 111 -28 60 -30 74 -30 175
1 110 10 151 51 213 19 29 74 29 146 1z m748 -63 c0 -2 -13 -6 -30 -8 -16 -3
-30 -1 -30 4 0 4 14 8 30 8 17 0 30 -2 30 -4z m272 -17 c29 -6 78 -24 109 -39
67 -34 149 -109 149 -137 0 -25 -53 -93 -85 -110 -19 -10 -34 -9 -89 8 l-66
21 0 73 c0 95 -18 137 -72 169 -49 30 -35 34 54 15z m-118 -83 c113 -47 20
-323 -157 -466 -102 -82 -270 -160 -346 -160 -23 0 -28 7 -45 62 -19 60 -36
84 -87 119 -24 17 -24 17 -6 54 52 110 214 294 299 340 106 58 268 82 342 51z
m-1784 -31 c-14 -28 -18 -57 -17 -136 l2 -101 -32 -28 c-59 -52 -111 -49 -152
9 l-21 29 20 58 c23 66 54 115 84 135 36 23 121 69 127 69 4 0 -1 -16 -11 -35z
m309 -11 c60 -25 164 -107 271 -214 58 -58 113 -119 123 -137 l17 -31 -57 -39
c-40 -27 -66 -54 -83 -86 -22 -42 -28 -47 -50 -42 -29 8 -272 129 -315 157
-54 37 -114 110 -131 161 -23 69 -16 204 12 221 61 36 139 40 213 10z m291
-44 c0 -33 -3 -60 -7 -60 -14 1 -87 74 -77 77 5 2 23 12 39 22 17 11 33 20 38
20 4 1 7 -26 7 -59z m617 -20 c7 0 13 -2 13 -5 0 -8 -113 -155 -119 -155 -3 0
-5 46 -3 103 l3 104 46 -24 c26 -13 52 -23 60 -23z m-2152 29 c120 -33 271
-124 377 -227 69 -67 76 -77 66 -96 -6 -11 -14 -34 -18 -51 -6 -30 -7 -30 -71
-29 -75 1 -291 68 -361 113 -90 58 -138 129 -138 204 0 85 47 113 145 86z
m-230 -241 c39 -16 77 -39 85 -51 8 -11 41 -38 74 -59 l59 -38 -69 0 c-79 0
-106 13 -176 82 -48 47 -88 95 -88 104 0 8 34 -3 115 -38z m3473 -52 c43 -15
91 -46 92 -57 0 -4 -17 -10 -37 -14 -21 -4 -87 -25 -148 -48 -134 -49 -188
-59 -274 -48 -73 9 -156 44 -166 68 -9 24 50 79 100 93 117 33 351 36 433 6z
m-2048 -192 l95 -48 -75 -8 c-70 -7 -133 -19 -187 -34 -21 -6 -23 -3 -23 39 0
24 -12 82 -26 128 -42 140 -44 138 42 51 63 -64 98 -89 174 -128z m1489 2 c27
-19 56 -36 63 -39 10 -3 10 -7 1 -17 -9 -10 -16 -9 -33 3 -26 18 -57 11 -66
-15 -5 -16 -12 -19 -37 -14 -18 3 -51 8 -75 12 l-43 7 38 25 c21 14 51 36 66
49 16 13 30 23 32 23 2 0 26 -15 54 -34z m-2471 4 c53 -6 123 -15 155 -21 l58
-12 -3 -41 c-3 -40 -5 -42 -78 -84 -122 -69 -370 -131 -451 -113 -54 12 -149
71 -170 105 -27 45 -25 100 5 119 25 17 112 43 161 50 62 8 229 7 323 -3z
m1241 -172 c-5 -17 -6 -48 -3 -69 6 -36 5 -38 -50 -73 -77 -49 -252 -132 -307
-145 -82 -19 -181 -24 -229 -11 -58 15 -120 55 -120 78 0 26 80 104 147 145
114 68 269 105 450 106 l122 1 -10 -32z m1192 -19 c31 -15 72 -42 91 -62 48
-47 91 -138 96 -201 5 -67 -17 -97 -87 -115 -130 -33 -352 68 -518 237 -47 47
-51 55 -43 78 6 14 10 38 10 54 0 37 11 38 230 36 155 -1 168 -3 221 -27z
m-2138 -89 c22 -21 42 -39 45 -37 4 1 21 -4 39 -10 l31 -11 -52 -104 c-89
-177 -157 -256 -266 -306 -51 -24 -59 -25 -127 -15 -40 6 -94 21 -120 34 -44
22 -48 27 -51 64 -3 43 38 133 88 192 50 57 173 153 224 172 28 11 69 29 91
40 21 12 44 21 50 21 5 0 27 -18 48 -40z m1734 -224 c115 -164 146 -285 103
-400 -27 -72 -61 -106 -105 -106 -103 0 -231 256 -237 475 -2 76 0 90 16 99
10 6 37 25 59 43 l42 32 33 -32 c19 -18 59 -68 89 -111z m-737 115 c0 -16 55
-63 92 -78 21 -8 38 -18 38 -22 0 -3 -23 -69 -51 -146 -75 -205 -118 -283
-170 -311 -31 -15 -175 -30 -211 -21 -34 9 -48 46 -48 126 0 58 5 79 35 137
19 38 59 98 88 134 48 57 82 89 180 171 23 19 47 25 47 10z m413 -178 c6 -103
26 -175 87 -310 l32 -71 -30 -44 c-44 -64 -129 -128 -169 -128 -27 0 -134 58
-170 93 -30 28 -33 37 -33 86 0 60 33 233 69 367 l22 81 52 2 c29 1 66 5 82
10 52 16 52 16 58 -86z m-1207 78 c5 -5 36 -23 69 -40 50 -26 71 -31 132 -31
40 0 73 -1 73 -2 0 -2 5 -30 10 -63 15 -90 13 -233 -5 -314 -29 -124 -112
-198 -227 -204 -47 -2 -60 2 -82 22 -38 36 -72 117 -87 210 -11 73 -11 93 3
160 15 73 87 271 99 271 3 0 9 -4 15 -9z m488 -33 c-4 -7 -24 -38 -44 -68 -20
-30 -39 -63 -43 -72 -12 -34 -27 -18 -29 32 -1 28 -2 58 -2 68 -1 11 7 17 24
18 14 1 41 9 60 18 43 19 43 19 34 4z m1281 -91 c33 -14 89 -31 124 -38 55
-12 67 -18 87 -49 31 -46 81 -201 105 -323 10 -54 19 -102 19 -107 0 -10 -94
-80 -108 -80 -5 0 -13 28 -17 63 -16 141 -107 373 -162 417 -15 12 -40 24 -56
27 -23 5 -33 17 -53 61 -28 63 -28 66 -11 59 6 -3 39 -17 72 -30z m6 -200 c43
-59 119 -272 103 -287 -5 -5 -21 -12 -37 -15 -26 -7 -27 -6 -17 20 14 36 12
115 -3 141 -7 11 -29 36 -49 53 -33 28 -38 38 -36 72 1 44 15 49 39 16z
m-2131 -53 c0 -64 -39 -128 -137 -224 -50 -49 -96 -90 -102 -90 -23 0 -7 184
25 283 l16 47 66 1 c37 0 76 4 87 9 37 16 45 11 45 -26z m2110 -158 c0 -11
-18 -57 -40 -102 -60 -125 -111 -154 -265 -154 -110 0 -136 19 -154 114 -7 39
-5 47 13 63 12 10 33 34 48 53 l27 35 28 -26 c41 -39 66 -49 118 -49 63 0 120
33 152 88 l26 43 23 -22 c13 -12 24 -31 24 -43z m-901 -70 l23 -25 -83 -42
c-46 -23 -108 -57 -137 -77 -29 -19 -55 -32 -57 -30 -3 3 -8 38 -11 80 l-7 75
76 6 c42 4 91 13 109 21 47 21 62 19 87 -8z m193 -87 c32 -16 54 -20 99 -17
l57 4 -10 -25 c-24 -66 -117 -121 -214 -129 -66 -5 -120 13 -180 61 l-27 21
104 52 c57 29 110 53 117 53 7 1 31 -8 54 -20z"/>
<path d="M6846 5779 c-52 -12 -103 -45 -111 -70 -4 -12 0 -31 10 -46 16 -23
21 -25 76 -21 96 7 174 76 142 125 -12 17 -72 23 -117 12z"/>
<path d="M4400 4660 c0 -5 5 -10 10 -10 6 0 10 5 10 10 0 6 -4 10 -10 10 -5 0
-10 -4 -10 -10z"/>
<path d="M4230 4571 c0 -6 4 -13 10 -16 6 -3 7 1 4 9 -7 18 -14 21 -14 7z"/>
<path d="M3570 4509 c0 -5 5 -7 10 -4 6 3 10 8 10 11 0 2 -4 4 -10 4 -5 0 -10
-5 -10 -11z"/>
<path d="M4160 4459 c0 -5 5 -7 10 -4 6 3 10 8 10 11 0 2 -4 4 -10 4 -5 0 -10
-5 -10 -11z"/>
<path d="M3498 4433 c7 -3 16 -2 19 1 4 3 -2 6 -13 5 -11 0 -14 -3 -6 -6z"/>
<path d="M3432 8988 c3 -35 40 -78 67 -78 17 0 51 29 51 43 0 12 -21 7 -37 -9
-14 -14 -17 -14 -31 0 -13 12 -13 18 -2 30 10 13 10 16 -4 16 -9 0 -19 7 -22
15 -11 27 -24 16 -22 -17z"/>
<path d="M3180 8966 c0 -8 14 -22 32 -30 42 -21 43 -21 16 13 -25 32 -48 40
-48 17z"/>
<path d="M3356 8938 c-20 -28 -20 -52 -1 -68 23 -19 40 1 24 28 -11 18 -10 24
5 41 17 18 17 21 3 21 -9 0 -23 -10 -31 -22z"/>
<path d="M3206 8860 c7 -60 10 -70 25 -70 14 0 11 20 -11 75 l-20 50 6 -55z"/>
<path d="M3310 8858 c16 -17 33 -28 37 -24 5 4 -5 19 -20 32 -40 35 -51 30
-17 -8z"/>
<path d="M3146 8765 c16 -25 34 -33 34 -17 0 10 -33 42 -44 42 -3 0 1 -11 10
-25z"/>
<path d="M3034 8725 c-16 -24 -18 -25 -35 -9 -11 10 -19 13 -19 9 0 -16 53
-85 65 -85 19 0 63 38 70 61 16 48 -52 68 -81 24z m58 -1 c10 -9 -3 -42 -20
-49 -23 -9 -36 9 -23 34 11 20 31 27 43 15z"/>
<path d="M2967 8613 c5 -13 2 -15 -15 -11 -13 4 -27 -1 -38 -13 -13 -15 -20
-16 -31 -8 -27 23 -26 -2 2 -31 33 -34 62 -42 46 -12 -12 22 0 45 20 38 20 -8
53 20 46 39 -4 8 -13 15 -21 15 -10 0 -13 -6 -9 -17z"/>
<path d="M2710 8585 c-7 -9 -11 -17 -9 -20 3 -2 10 5 17 15 14 24 10 26 -8 5z"/>
<path d="M2836 8475 c-13 -30 -20 -35 -48 -35 -25 0 -29 -3 -18 -10 28 -18 50
-10 75 30 28 44 30 50 15 50 -5 0 -16 -16 -24 -35z"/>
<path d="M2685 8381 c-13 -27 -13 -31 4 -52 16 -20 21 -21 35 -10 9 7 16 20
16 29 0 13 3 12 20 -3 11 -10 20 -31 20 -47 0 -32 22 -35 28 -5 3 16 -82 117
-99 117 -5 0 -15 -13 -24 -29z m25 -27 c0 -8 -4 -12 -10 -9 -5 3 -10 10 -10
16 0 5 5 9 10 9 6 0 10 -7 10 -16z"/>
<path d="M2624 8245 c-7 -29 18 -75 41 -75 19 0 19 14 0 30 -8 7 -15 21 -15
32 0 18 5 19 35 14 20 -4 35 -3 35 2 0 13 -25 22 -61 22 -22 0 -30 -6 -35 -25z"/>
<path d="M2590 8130 c0 -12 48 -25 58 -16 8 9 -18 26 -40 26 -10 0 -18 -4 -18
-10z"/>
<path d="M2525 8089 c-4 -6 2 -17 14 -25 12 -8 21 -22 21 -31 0 -13 -8 -14
-40 -9 -43 7 -55 -9 -25 -34 8 -7 15 -19 15 -28 0 -11 -8 -13 -36 -9 -42 7
-43 -12 -1 -26 34 -11 57 5 57 39 0 17 6 24 19 24 32 0 45 25 31 60 -14 35
-45 56 -55 39z"/>
<path d="M2350 7885 c12 -14 110 -55 132 -55 22 0 -3 14 -73 41 -42 16 -65 22
-59 14z"/>
<path d="M2285 7741 c-69 -17 -125 -72 -125 -124 1 -70 87 -167 149 -169 23
-1 40 7 59 26 l27 28 -38 -23 c-34 -19 -43 -20 -77 -10 -51 15 -92 69 -98 130
-4 41 -1 50 24 75 16 15 39 32 52 37 30 12 79 12 86 0 10 -16 -23 -34 -49 -27
-38 10 -41 -16 -6 -52 19 -18 31 -41 31 -56 0 -48 -54 -22 -66 32 -10 45 -11
48 -19 29 -10 -25 1 -60 29 -90 31 -33 59 -35 73 -4 12 25 7 74 -8 83 -16 9
-10 29 13 39 33 15 46 42 28 59 -21 19 -50 25 -85 17z"/>
</g>
</svg>
